<?xml version="1.0" standalone="no"?>
<!DOCTYPE svg PUBLIC "-//W3C//DTD SVG 20010904//EN"
 "http://www.w3.org/TR/2001/REC-SVG-20010904/DTD/svg10.dtd">
<svg version="1.0" xmlns="http://www.w3.org/2000/svg"
 width="700.000000pt" height="700.000000pt" viewBox="0 0 700.000000 700.000000"
 preserveAspectRatio="xMidYMid meet">
<metadata>
Created by potrace 1.14, written by Peter Selinger 2001-2017
</metadata>
<g transform="translate(0.000000,700.000000) scale(0.100000,-0.100000)"
fill="#000000" stroke="none">
<path d="M1855 6985 c-132 -39 -221 -123 -266 -251 l-21 -59 0 -3170 c0 -2442
2 -3180 12 -3215 32 -120 133 -228 250 -269 178 -61 387 25 473 195 37 73 40
101 43 329 1 116 2 212 3 215 1 8 2301 8 2302 1 1 -3 2 -103 3 -221 2 -220 7
-251 48 -333 86 -172 312 -252 492 -175 111 48 211 167 231 278 9 46 9 6335 1
6379 -22 113 -127 239 -236 281 -87 34 -209 34 -290 2 -106 -42 -211 -164
-236 -272 -4 -19 -8 -140 -8 -268 -1 -162 -5 -235 -13 -240 -8 -5 -2196 -8
-2283 -3 -14 1 -15 29 -14 209 1 114 -3 236 -8 271 -16 110 -88 220 -183 275
-87 51 -210 68 -300 41z m2800 -1958 c0 -208 -2 -383 -6 -388 -3 -5 -458 -8
-1155 -7 l-1149 3 -1 375 c0 206 2 381 4 388 3 10 239 12 1156 10 l1151 -3 0
-378z m-8 -1181 c5 -4 8 -174 8 -377 l0 -369 -1155 0 -1155 0 0 370 c0 268 3
373 12 378 15 9 2281 7 2290 -2z m-3 -1529 c8 -3 11 -106 11 -388 l0 -384
-1155 0 -1155 0 0 385 0 385 60 5 c73 6 2222 3 2239 -3z"/>
</g>
</svg>
